<svg viewBox="0 0 475 512" xmlns="http://www.w3.org/2000/svg"><path d="M7.08 0L467.91 0C469.86 0 471.53 0.69 472.92 2.08C474.3 3.48 475 5.16 475 7.13L475 326.35C474.99 328.68 474.07 330.56 472.23 331.98L241.82 510.32C238.94 512.55 236.05 512.55 233.17 510.32L2.76 331.98C0.92 330.56 0 328.68 0 326.35L0 7.13C0 5.16 0.69 3.48 2.07 2.08C3.46 0.69 5.13 0 7.08 0ZM399.42 142.33C398.92 142.06 397.81 141.93 397.25 141.94L395.6 142.27C395.2 142.38 394.83 142.55 394.48 142.79L264.51 227.55C263.41 228.31 262.4 229.18 261.49 230.16C260.59 231.16 259.84 232.27 259.25 233.48L247.35 257.08L239.46 272.86C238.72 274.1 237.63 274.73 236.17 274.73C234.72 274.73 233.62 274.1 232.89 272.86L225 257.08L213.1 233.48C211.88 231.04 210.13 229.06 207.84 227.55L77.86 142.79C77.52 142.55 76.56 142.38 76.15 142.27C75.59 142.26 75.07 142.39 74.58 142.66C74.16 142.92 73.81 143.24 73.52 143.64C73.25 144.1 73.07 144.99 73 145.53C72.98 146.17 73.11 146.78 73.39 147.35L127.24 252.26C127.91 253.51 127.88 254.74 127.14 255.95C126.4 257.16 125.31 257.76 123.88 257.74L91.6 257.74C89.1 257.74 87.83 258.97 87.79 261.45C87.77 262.77 88.32 263.79 89.43 264.52L235.06 368.05C236.55 369.12 238.04 369.12 239.53 368.05L385.41 264.52C385.78 264.3 386.09 263.43 386.33 263.08C386.62 262.58 386.77 262.03 386.79 261.45C386.75 258.97 385.48 257.74 382.98 257.74L350.7 257.74C349.27 257.76 348.18 257.16 347.44 255.95C346.7 254.74 346.67 253.51 347.35 252.26L400.6 147.03C400.88 146.45 401.02 145.45 400.99 144.81C400.92 144.28 400.74 143.78 400.47 143.31C400.18 142.92 399.83 142.59 399.42 142.33Z"/></svg>