<svg viewBox="0 0 512 365" fill-rule="evenodd" xmlns="http://www.w3.org/2000/svg"><path d="M139.63 -0.5C126.78 -0.5 116.36 9.7 116.36 22.3C116.36 34.9 126.78 45.13 139.63 45.13L209.45 45.13C222.3 45.13 232.73 55.33 232.73 67.93C232.73 80.53 222.3 90.74 209.45 90.74L104.72 90.74C91.87 90.74 81.45 100.97 81.45 113.56C81.45 126.16 91.87 136.37 104.72 136.37L162.91 136.37C175.76 136.37 186.18 146.58 186.18 159.18C186.18 171.78 175.76 182 162.91 182L116.36 182C103.51 182 93.1 192.21 93.1 204.81C93.1 217.41 103.51 227.62 116.36 227.62L145.49 227.62C166.17 306.33 239.05 364.5 325.81 364.5C428.63 364.5 512 282.79 512 182C512 81.2 428.63 -0.5 325.81 -0.5L139.63 -0.5ZM325.81 273.25C377.22 273.25 418.9 232.4 418.9 182C418.9 131.59 377.22 90.74 325.81 90.74C274.4 90.74 232.73 131.59 232.73 182C232.73 232.4 274.4 273.25 325.81 273.25ZM58.17 113.56C58.17 126.16 47.76 136.39 34.9 136.39L23.26 136.39C10.41 136.39 0 126.16 0 113.56C0 100.97 10.41 90.76 23.26 90.76L34.9 90.76C47.76 90.76 58.17 100.97 58.17 113.56ZM325.81 227.62C351.52 227.62 372.35 207.2 372.35 182C372.35 156.81 351.52 136.37 325.81 136.37C300.11 136.37 279.26 156.81 279.26 182C279.26 207.2 300.11 227.62 325.81 227.62Z"/></svg>